<svg width="289" height="64" viewBox="0 0 289 64" fill="none" xmlns="http://www.w3.org/2000/svg">
    <path
        d="M265.342 57.6348L263.901 52.3348L264.683 51.9529C264.874 51.8529 266.505 50.9298 266.505 47.0529C266.505 47.0529 266.519 13.3709 266.519 12.2469C266.658 10.6945 266.013 9.17515 264.8 8.19688C264.219 7.7982 263.541 7.563 262.837 7.51588L264.387 1.98588H279.947L281.503 7.51588C280.727 7.56452 279.984 7.8477 279.373 8.32789C278.271 9.31699 277.692 10.7625 277.806 12.2389C277.806 13.7189 277.831 47.0529 277.831 47.0529C277.831 50.4529 279.076 51.5869 279.539 51.8889L280.439 52.3349L278.995 57.6349L265.342 57.6348ZM118.618 57.6348L117.348 53.1858L117.173 52.3338L117.959 51.9498L117.872 51.9848C118.1 51.8848 119.803 51.0358 119.803 47.0559V22.5488L118.462 24.8288C116.052 28.9288 112.086 35.6928 110.562 38.2898C109.039 35.6898 101.319 22.5388 101.319 22.5388V47.0588C101.319 51.0708 103.095 51.9248 103.232 51.9838L103.162 51.9558L104.012 52.3648L102.505 57.6388H88.429L87.074 52.9158L86.857 52.0228L87.723 51.6988C88.171 51.5608 90.059 50.7608 90.059 47.0598V12.3648L90.065 12.3068C90.4028 10.243 89.0962 8.26652 87.065 7.76881L86.065 7.51881L87.618 1.98881H102.006C103.071 3.9968 108.041 13.3578 109.924 16.8988L110.561 18.0988L111.196 16.8988C113.071 13.3588 118.038 3.99882 119.104 1.99081H133.493L135.05 7.52082C134.138 7.60044 133.268 7.93751 132.54 8.49281C131.452 9.42878 130.894 10.8399 131.048 12.2668V12.6578V47.0578C131.048 51.0088 133.065 51.8578 133.295 51.9368L134.213 52.2798L132.682 57.6357L118.618 57.6348ZM19.079 60.2438C6.59702 60.2438 0 49.6638 0 29.6438C0 1.44382 15 0.010826 18.008 0.010826C20.0667 -0.0673448 22.1195 0.27848 24.039 1.02683L24.268 1.11384L24.884 1.38784C25.4605 1.70435 26.1054 1.87595 26.763 1.88784C26.9875 1.88692 27.2115 1.8682 27.433 1.83184C28.2096 1.73971 28.9409 1.41758 29.533 0.906837L29.574 0.865837L29.92 0.495842L34.176 0.686836L34.494 19.5178H26.576H25.724L25.493 17.9979C24.863 13.8879 24.267 10.0069 19.211 10.0069C13.134 10.0069 12.431 21.3659 12.431 29.9069C12.431 42.9849 14.539 49.3419 18.876 49.3419C22.7101 49.3419 24.14 45.8528 24.376 43.7919L24.4901 42.9109H35.379L35.344 43.9339C35.067 52.0418 29.391 60.2438 19.079 60.2438ZM143.127 12.2658C143.281 10.8392 142.725 9.42783 141.638 8.49082C140.91 7.93568 140.04 7.59861 139.128 7.51884L140.685 1.98884L157.185 2.06583C169.04 2.06583 176.118 8.33884 176.118 18.8468C176.118 30.3058 170.102 35.6419 157.185 35.6419H154.385V47.0559C154.385 51.0678 156.161 51.9229 156.297 51.9808L156.228 51.9528L157.078 52.3608L155.562 57.6348H141.49L140.213 53.1598L140 52.2658L140.887 51.9318C141.106 51.8528 143.121 51.0138 143.121 47.0558V13.2758L143.127 12.2658ZM154.384 25.3658H156.064C161.578 25.3658 164.037 23.3588 164.037 18.8578C164.037 14.6638 161.206 12.3578 156.064 12.3578H154.384V25.3658ZM246.391 57.6348C245.129 54.6058 237.802 37.0238 237.075 35.2728L236.891 34.8298H234.399V47.0508C234.399 51.0508 236.112 51.8928 236.326 51.9818L236.239 51.9478L237.089 52.3568L235.584 57.6308H221.505L220.228 53.1568L220.018 52.2568L220.899 51.9228C220.957 51.9058 223.141 51.1588 223.141 47.0478V12.3318V12.2868C223.47 10.2293 222.165 8.26351 220.141 7.76879L219.141 7.51879L220.692 1.98579L238.155 2.06478C249.571 2.06478 256.384 8.18777 256.384 18.4458C256.384 25.1948 254.058 29.9088 249.469 32.4578L248.92 32.7628L249.147 33.3478C250.059 35.6978 254.461 47.0958 254.461 47.0958C256.29 51.7298 259.105 52.3558 259.224 52.3798L260.224 52.6048L259.091 57.6358L246.391 57.6348ZM234.398 24.7678H237.09C242.425 24.7678 244.702 22.8798 244.702 18.4568C244.702 14.3808 242.002 12.1358 237.09 12.1358H234.398V24.7678ZM201.201 57.6998L199.949 53.2998L199.765 52.5108L200.491 52.1228C201.244 51.6638 201.67 50.8169 201.591 49.9388C201.588 49.6002 201.547 49.263 201.467 48.9338C201.467 48.9338 200.31 43.7958 199.885 41.9178L199.758 41.3568H188.358L188.231 41.9168C187.805 43.7958 186.643 48.9388 186.643 48.9388C186.57 49.2671 186.533 49.6025 186.533 49.9388C186.454 50.8119 186.873 51.6551 187.616 52.1198L188.39 52.5308L186.911 57.7009H172.629L171.518 51.9369C173.018 51.7099 174.09 50.6139 174.647 48.7309C175.608 45.4788 184.508 12.3039 184.568 12.0679L184.579 12.0179C185.016 10.8285 184.857 9.50158 184.152 8.44888C183.779 7.92873 183.281 7.51116 182.704 7.23489L184.187 2.06188H203.929L205.403 7.22888C204.858 7.47445 204.384 7.85265 204.023 8.32888C203.241 9.4172 203.065 10.8275 203.554 12.0749C203.648 12.3919 212.304 45.3689 213.376 48.4899C214.265 51.0719 215.712 51.8119 216.683 52.0609L215.489 57.6998H201.201ZM190.616 31.4688H197.496L194.096 16.1078L190.616 31.4688ZM67.657 57.6998L66.404 53.2998L66.221 52.5108L66.946 52.1228C67.6988 51.6638 68.1253 50.8169 68.046 49.9388C68.0434 49.6002 68.0018 49.263 67.922 48.9338C67.922 48.9338 66.765 43.7958 66.339 41.9178L66.212 41.3568H54.812L54.685 41.9168C54.259 43.7958 53.097 48.9388 53.097 48.9388C53.0242 49.2672 52.9873 49.6025 52.987 49.9388C52.9077 50.8119 53.3265 51.6553 54.07 52.1198L54.844 52.5308L53.366 57.7009H39.085L37.974 51.9369C39.474 51.7099 40.546 50.6139 41.103 48.7309C42.064 45.4788 50.964 12.3039 51.024 12.0679L51.035 12.0179C51.4727 10.8285 51.3139 9.50143 50.608 8.44888C50.2352 7.92873 49.7372 7.51116 49.16 7.23489L50.644 2.06188H70.384L71.857 7.22888C71.3122 7.47433 70.8377 7.85253 70.477 8.32888C69.6952 9.41711 69.5186 10.8275 70.008 12.0749C70.102 12.3919 78.757 45.3689 79.829 48.4899C80.718 51.0719 82.165 51.8119 83.137 52.0609L81.944 57.7029L67.657 57.6998ZM57.072 31.4688H63.952L60.552 16.1078L57.072 31.4688ZM286.868 58.1638C286.707 57.3378 285.861 57.2308 285.154 57.2308H283.572V61.4048H284.366V59.6268H285.148L285.991 61.4048H286.873L285.944 59.5048C286.546 59.4237 286.968 58.8698 286.887 58.2677C286.882 58.2328 286.876 58.1981 286.868 58.1638ZM285.026 59.1288H284.367V57.7448H285.004C285.504 57.7448 286.047 57.7938 286.088 58.4008C286.137 59.0538 285.533 59.1288 285.022 59.1288H285.026ZM285.058 55.7028C283.026 55.7056 281.38 57.3554 281.383 59.3879C281.386 61.4203 283.036 63.0656 285.068 63.0628C287.101 63.06 288.746 61.4101 288.743 59.3777C288.743 59.3381 288.742 59.2984 288.741 59.2588C288.66 57.2802 287.038 55.7145 285.058 55.7028ZM285.026 62.5738C283.259 62.5538 281.842 61.1049 281.863 59.3377C281.883 57.5705 283.331 56.1542 285.099 56.1742C286.866 56.1943 288.282 57.6431 288.262 59.4103C288.262 59.4125 288.262 59.4146 288.262 59.4168C288.224 61.1767 286.782 62.5813 285.022 62.5738H285.026Z"
        fill="red" />
</svg>