<svg width="1139" height="275" viewBox="0 0 1139 275" fill="none" xmlns="http://www.w3.org/2000/svg">
<path d="M1049.87 213.694V84.7197H991.904V55.8901H1138.48V84.7197H1080.52V213.694H1049.87Z" fill="white"/>
<path d="M818.94 213.694V55.8901H849.591V200.038H851.108L911.802 55.8901H970.371V213.694H939.721V69.5463H938.204L877.207 213.694H818.94Z" fill="white"/>
<path d="M732.892 215.211C705.883 215.211 686.461 202.465 679.785 175.76H677.964V274.388H647.313V55.8899H677.964V94.127H679.785C686.461 66.8148 705.883 54.3726 732.892 54.3726C774.467 54.3726 797.227 84.7195 797.227 135.095C797.227 185.168 774.467 215.211 732.892 215.211ZM721.056 191.541C751.1 191.541 766.577 174.243 766.577 134.792C766.577 95.3409 750.796 78.0431 721.056 78.0431C694.048 78.0431 677.964 93.8235 677.964 124.474V145.413C677.964 175.76 693.744 191.541 721.056 191.541Z" fill="white"/>
<path d="M535.3 215.515C501.918 215.515 481.282 195.486 481.282 164.229C481.282 126.295 511.629 96.8585 563.826 85.3266V83.8093H490.993V55.5867H585.979C608.739 55.5867 622.699 69.8497 622.699 92.6099V213.694H592.048V176.974H590.531C584.158 201.252 564.433 215.515 535.3 215.515ZM548.652 193.058C576.572 193.058 592.048 177.581 592.048 149.662V99.2862C592.048 89.8787 585.979 83.8093 576.572 83.8093H573.84C533.479 102.624 510.112 127.509 510.112 157.249C510.112 180.009 524.375 193.058 548.652 193.058Z" fill="white"/>
<path d="M390.851 215.211C336.227 215.211 316.805 184.561 316.805 120.225C316.805 20.9911 387.513 35.2542 403.293 0.962158H437.585C423.322 57.1039 345.634 38.8958 345.634 108.997H347.152C352.614 83.5057 371.429 68.3323 403.9 68.3323C443.958 68.3323 463.987 91.6994 463.987 138.13C463.987 189.416 439.71 215.211 390.851 215.211ZM391.458 186.989C421.805 186.989 433.337 173.94 433.337 137.827C433.337 102.017 421.805 88.3612 390.851 88.3612C359.594 88.3612 348.972 101.714 348.972 137.22C348.972 172.119 358.987 186.989 391.458 186.989Z" fill="white"/>
<path d="M143.839 213.694V55.8901H174.489V200.038H176.007L236.7 55.8901H295.27V213.694H264.62V69.5463H263.102L202.105 213.694H143.839Z" fill="white"/>
<path d="M77.6881 213.694C28.5261 213.694 0 183.347 0 133.882C0 83.8093 29.133 54.3728 78.5985 54.3728C93.4685 54.3728 108.945 57.104 121.995 62.263V91.6995C109.552 86.237 97.717 83.2024 83.1505 83.2024C47.9481 83.2024 30.6504 100.804 30.6504 133.882C30.6504 166.353 48.2516 184.864 82.2401 184.864H121.995V213.694H77.6881Z" fill="white"/>
</svg>
