<svg width="93" height="38" viewBox="0 0 93 38" fill="none" xmlns="http://www.w3.org/2000/svg">
<g clip-path="url(#clip0_405_460)">
<path d="M83.4375 0.100067C83.0081 0.154355 82.3681 0.293957 82.0199 0.410291C79.7112 1.14708 78.3096 2.61289 77.6292 4.98611L77.4023 5.76168V32.1309L77.6211 32.8754C78.0747 34.4576 78.4878 35.1865 79.4681 36.1328C80.2621 36.9006 81.0397 37.3272 82.1413 37.6141C83.0973 37.8545 84.7578 37.8623 85.56 37.6218C86.7589 37.265 87.6499 36.5904 88.1765 35.6597C88.3306 35.3804 88.4601 35.2098 88.4601 35.2718C88.4601 35.3338 88.5655 35.5976 88.695 35.8536C88.9543 36.3809 89.4564 36.8617 90.0072 37.1177C90.4529 37.3272 91.3522 37.5209 91.8867 37.5209H92.2675V18.4421H85.0578V23.7936H86.362L86.3134 32.3635L86.127 32.6813C85.6087 33.5423 84.3287 33.519 83.8669 32.6349C83.7616 32.441 83.64 32.092 83.5995 31.8517C83.5429 31.5647 83.5267 27.0974 83.5347 18.6283C83.5671 4.58282 83.5266 5.54451 84.0613 4.94734C84.7418 4.18727 85.8354 4.45098 86.2405 5.47472C86.3781 5.80821 86.3943 6.21927 86.4187 10.4693L86.4429 15.1072H92.2675V10.9967C92.2675 5.9323 92.1864 5.07143 91.5546 3.64439C90.7931 1.9304 89.3673 0.759294 87.4475 0.27069C86.3456 -0.0162681 84.8065 -0.0783142 83.4375 0.100067Z" fill="#B12535"/>
<path d="M0 37.4436H11.4222V32.5576H6.15667V0.371582H0V37.4436Z" fill="#B12535"/>
<path d="M13.2852 15.8209C13.2852 28.8815 13.3014 31.3942 13.4066 32.0145C13.8846 35.0626 15.7721 37.048 18.7531 37.6375C19.6849 37.8158 21.1267 37.8701 22.0827 37.7538C25.6228 37.3273 27.7289 35.3494 28.2313 31.9758C28.3285 31.3243 28.3529 28.7263 28.3529 15.782V0.371582H22.1961L22.1798 16.1699C22.1555 31.3243 22.1476 31.9914 22.0098 32.3637C21.7182 33.1004 21.1754 33.4338 20.5193 33.2632C20.106 33.1547 19.8226 32.8445 19.628 32.3016C19.4904 31.9215 19.4824 30.9987 19.4579 16.1311L19.4418 0.371582H13.2852V15.8209Z" fill="#B12535"/>
<path d="M31.3516 37.4436H35.6044C40.2706 37.4436 41.0483 37.397 42.1662 37.048C44.4913 36.3267 45.844 34.8454 46.4434 32.3637C46.6136 31.6733 46.6136 31.4873 46.6461 19.6832C46.6621 11.9663 46.6379 7.34389 46.5892 6.69243C46.484 5.436 46.2733 4.64493 45.8034 3.722C44.8234 1.80638 43.0897 0.728342 40.5623 0.456896C40.1086 0.402606 38.0185 0.371582 35.564 0.371582H31.3516V37.4436ZM39.5334 4.96291C39.9466 5.17233 40.2138 5.58337 40.3435 6.25811C40.4568 6.83201 40.4568 30.9831 40.3435 31.557C40.2301 32.1232 39.971 32.604 39.671 32.8056C39.4443 32.9608 39.2903 32.9841 38.5047 33.0151L37.5891 33.0383V4.79229H38.3831C39.0474 4.79229 39.2337 4.82333 39.5334 4.96291Z" fill="#B12535"/>
<path d="M49.5781 37.521H55.8966V0.371582H49.5781V37.521Z" fill="#B12535"/>
<path d="M58.9766 37.4436H64.323V26.5857C64.323 19.3962 64.3474 15.7277 64.4041 15.7277C64.4528 15.7277 64.485 15.7666 64.485 15.8053C64.485 15.8829 68.73 36.9083 68.8191 37.2651L68.8595 37.4436H74.3682V0.371582H69.0216V9.67835C69.0216 15.2159 68.9892 18.9851 68.9487 18.9851C68.9083 18.9851 68.8354 18.7525 68.7785 18.4578C68.73 18.1709 67.9846 13.9905 67.1342 9.17422L65.5788 0.410362L62.2817 0.387095L58.9766 0.371582V37.4436Z" fill="#B12535"/>
</g>
<defs>
<clipPath id="clip0_405_460">
<rect width="93" height="38" fill="white"/>
</clipPath>
</defs>
</svg>
